<svg xmlns="http://www.w3.org/2000/svg" viewBox="5 -5 960 470" width="960" height="470" style="background: transparent;">
  <defs>
    <style>
      @import url('https://fonts.googleapis.com/css2?family=Caveat:wght@400;500&amp;display=swap');
    </style>
  </defs>
  <g>
  <path d="M 269.25049306126334,30.036880653019473
    C 309.0130677842871,29.644958311177305 339.81433595696666,41.856598119169696 340.71381082151265,57.518477162704094
    C 340.04567356770656,72.32348306377214 308.07056336786115,85.47323144028114 270.60081680507903,84.92804296323007
    C 230.9581505218051,84.62111218011525 199.53241119686626,72.4228163508023 199.4051859975584,57.961060963669354
    C 200.05161639084184,42.82885025921125 231.69559601398024,29.367499167852802 270.0585141020401,29.446512987928703
    Z" fill="#ffffff" stroke="#1e1e1e" stroke-width="2" stroke-linecap="round" stroke-linejoin="round"/>
  <path d="M 388.54378811772625,29.946894624827845
    L 556.9579594816119,29.925007450010167
    Q 565.6231587288776,30.428756246193664 565.1062297769153,38.403860614939525
    L 565.1853552886449,76.76633625571445
    Q 564.8134497928263,84.65066803148979 556.7776052488608,85.211417603987
    L 387.79567020947377,84.32921062576548
    Q 380.042987240382,84.48654910025026 379.93072790614366,76.7439185560187
    L 379.2845386008427,38.74026436358237
    Q 379.5391710061995,29.347101195294922 388.54378811772625,29.946894624827845
    Z" fill="#e9ecef" stroke="#595959" stroke-width="2" stroke-linecap="round" stroke-linejoin="round"/>
  <path d="M 208.72978932176707,140.06913093911444
    L 371.38369369629476,140.73995362617538
    Q 380.7431448171815,139.5349423688766 380.2763937094837,147.84907529321455
    L 379.9084530571282,192.3705311539213
    Q 379.5171039550412,200.46617237744675 372.4591477474706,199.39619173838113
    L 207.29454697181683,199.4509553253655
    Q 200.20615341814988,199.82049884487432 199.62408580275908,192.01008697192188
    L 199.53011040356014,148.06555263549814
    Q 200.03173709115094,139.40529097391072 208.72978932176707,140.06913093911444
    Z" fill="#e8e6fd" stroke="#2C1FEB" stroke-width="2" stroke-linecap="round" stroke-linejoin="round"/>
  <path d="M 428.72539851766794,139.77288644552365
    L 587.4024899160269,139.64801866277028
    Q 595.6321444014935,139.950955902087 595.7158463764777,147.7300494601857
    L 595.4412773413077,192.54827535911383
    Q 595.3639606261225,200.08624324125063 587.4901556993091,200.04683828693666
    L 427.711088544671,199.7651702854853
    Q 419.716988151412,199.91986078124953 420.1001504607732,192.22879421547
    L 419.9495693006085,147.911235327209
    Q 419.344379404138,139.98464534768584 428.72539851766794,139.77288644552365
    Z" fill="#e8e6fd" stroke="#2C1FEB" stroke-width="2" stroke-linecap="round" stroke-linejoin="round"/>
  <path d="M 642.9343585561422,139.26425308269182
    L 782.301560801245,139.83238652585186
    Q 789.6887824395386,139.86646132595672 789.6155053546491,147.7984955883811
    L 790.3153539207137,192.65334543511426
    Q 789.2767279655797,199.96691749813823 782.482391209217,200.04905330962458
    L 642.4389748602123,199.85047558792888
    Q 634.4432063208395,200.46863435055997 634.837529861409,191.36438070103264
    L 634.437727877492,147.89243700734454
    Q 635.1464422556555,139.75499080214882 642.9343585561422,139.26425308269182
    Z" fill="#e8e6fd" stroke="#2C1FEB" stroke-width="2" stroke-linecap="round" stroke-linejoin="round"/>
  <path d="M 207.63041171519106,259.82969721596675
    L 366.72110875298785,260.17481146702767
    Q 375.24275725986473,260.0212665462267 375.42684243208583,267.4407560663255
    L 374.78720673221966,306.58354841560754
    Q 374.69822111630265,314.50230169843525 367.6846456010522,315.3386168836563
    L 208.13396361138857,315.0264166075626
    Q 199.98392330540062,314.7989938680776 199.68994078083892,306.83470355979387
    L 200.73368504665964,267.5445792085
    Q 199.86272945539687,259.8939568552393 207.63041171519106,259.82969721596675
    Z" fill="#e9ecef" stroke="#595959" stroke-width="2" stroke-linecap="round" stroke-linejoin="round"/>
  <path d="M 462.23286600736105,239.7789857168817
    L 509.41294363055516,287.8435987404518
    L 462.36403077310604,334.2652035933059
    L 414.77679269180015,287.5547710856445
    Z" fill="#fff9e0" stroke="#595959" stroke-width="2" stroke-linecap="round" stroke-linejoin="round"/>
  <path d="M 624.5376364271099,260.5554304359506
    C 667.040693256778,260.69732502333227 700.4416671459059,271.91189062030975 700.0148774824407,287.0458473813701
    C 700.5569386867838,303.15633939587906 667.1483608377736,314.76635881560685 625.1926139043377,315.2618902034647
    C 584.1672933966356,314.4343588993346 550.270021116836,303.4327412822586 550.7135089835914,286.94548721969846
    C 549.8037014724937,271.62281758179455 583.6429629224208,259.5120787714897 625.0079124275398,259.4841696630391
    Z" fill="#CCFF00" stroke="#595959" stroke-width="2" stroke-linecap="round" stroke-linejoin="round"/>
  <path d="M 380.4395266984075,389.6252201347962
    L 549.5748055199276,389.7563734243188
    L 530.3681425259533,437.8714336972318
    L 360.68614937455214,438.11253809782795
    Z" fill="#e9ecef" stroke="#595959" stroke-width="2" stroke-linecap="round" stroke-linejoin="round"/>
  <path d="M 339.95187346285763,57.13729024801277 Q 360.87439670128487,56.98535849479276 379.9601109910105,56.58542591337367" fill="none" stroke="#1e1e1e" stroke-width="1.5" stroke-linecap="round"/>
    <path d="M 370.8595989428376,60.08025860535336 L 380,57 L 370.67815400771815,53.67727790360801" fill="none" stroke="#1e1e1e" stroke-width="1.5" stroke-linecap="round" stroke-linejoin="round"/>
  <path d="M 471.8442249774673,84.88919629314411 L 471.72209887310026,112.31576019656647 L 187.98162369266228,112.14940257493845 L 188.00907699042423,169.55697805995914 L 200.13025373296358,170.17448991894466" fill="none" stroke="#1e1e1e" stroke-width="1.5" stroke-linecap="round"/>
    <path d="M 190.25834057432627,173.73085903528064 L 200,170 L 190.3195797954881,166.12049295268633" fill="none" stroke="#1e1e1e" stroke-width="1.5" stroke-linecap="round" stroke-linejoin="round"/>
  <path d="M 379.95955483683366,170.23814266302537 Q 400.927474934574,170.0712253847491 419.5425207391579,170.14606302727296" fill="none" stroke="#1e1e1e" stroke-width="1.5" stroke-linecap="round"/>
    <path d="M 410.4875722481915,173.42760168805484 L 420,170 L 410.4733449715169,166.4518064693196" fill="none" stroke="#1e1e1e" stroke-width="1.5" stroke-linecap="round" stroke-linejoin="round"/>
  <path d="M 595.3458288921257,170.34618995610913 Q 615.8291846522266,170.10644997242207 634.5523432488797,170.23298392106452" fill="none" stroke="#1e1e1e" stroke-width="1.5" stroke-linecap="round"/>
    <path d="M 625.3670342029488,173.54467529434342 L 635,170 L 625.129445863353,166.53949555755224" fill="none" stroke="#1e1e1e" stroke-width="1.5" stroke-linecap="round" stroke-linejoin="round"/>
  <path d="M 712.1363348186185,200.3792965216 L 711.8366385313387,230.38379620988098 L 188.4628994697532,229.95138814228187 L 187.98050733119274,287.3867153562078 L 199.5249917842564,286.5369179975413" fill="none" stroke="#1e1e1e" stroke-width="1.5" stroke-linecap="round"/>
    <path d="M 190.58705754871914,290.47704765619915 L 200,287 L 190.51173157302384,283.61541799599684" fill="none" stroke="#1e1e1e" stroke-width="1.5" stroke-linecap="round" stroke-linejoin="round"/>
  <path d="M 375.1647577558946,287.08360331998375 Q 395.24199793359355,286.25926990726 415.2746656591886,287.30573398284884" fill="none" stroke="#1e1e1e" stroke-width="1.5" stroke-linecap="round"/>
    <path d="M 406.0773226114919,290.3619576785198 L 415,287 L 405.1944767161816,283.5130390487545" fill="none" stroke="#1e1e1e" stroke-width="1.5" stroke-linecap="round" stroke-linejoin="round"/>
  <path d="M 510.4817914538932,287.4689655830008 Q 529.8091069882778,286.6611519850144 550.4907060684593,287.2968925953828" fill="none" stroke="#1e1e1e" stroke-width="1.5" stroke-linecap="round"/>
    <path d="M 540.4801234706316,290.23599723901754 L 550,287 L 540.1773700019809,284.0004934768533" fill="none" stroke="#1e1e1e" stroke-width="1.5" stroke-linecap="round" stroke-linejoin="round"/>
  <path d="M 462.12836451112685,335.422338508499 Q 462.48662468580835,363.201094381372 461.6466338597921,389.9752815256246" fill="none" stroke="#e03131" stroke-width="1.5" stroke-linecap="round"/>
    <path d="M 458.127623097785,380.40217638068106 L 462,390 L 465.1792564404693,380.5347688022335" fill="none" stroke="#e03131" stroke-width="1.5" stroke-linecap="round" stroke-linejoin="round"/>
  <path d="M 550.2311073978111,414.2220350106815 Q 586.9848490480729,364.35795096068546 625.2908981203991,315.12470954685693" fill="none" stroke="#e03131" stroke-width="1.5" stroke-linecap="round"/>
    <path d="M 622.0540911780888,324.85936445480024 L 625,315 L 616.9054802626866,320.18582123622014" fill="none" stroke="#e03131" stroke-width="1.5" stroke-linecap="round" stroke-linejoin="round"/>
  <text x="270" y="58" font-family="'Virgil', 'Segoe Print', 'Comic Sans MS', cursive" font-size="18" fill="#1e1e1e" text-anchor="middle" dominant-baseline="central">Ticket Input</text>
  <text x="472" y="58" font-family="'Virgil', 'Segoe Print', 'Comic Sans MS', cursive" font-size="16" fill="#1e1e1e" text-anchor="middle" dominant-baseline="central">1. collect-context</text>
  <text x="472.5" y="100" font-family="'Virgil', 'Segoe Print', 'Comic Sans MS', cursive" font-size="12" fill="#868e96" text-anchor="middle" dominant-baseline="central">deterministic</text>
  <text x="290" y="170" font-family="'Virgil', 'Segoe Print', 'Comic Sans MS', cursive" font-size="16" fill="#1e1e1e" text-anchor="middle" dominant-baseline="central">2. triage-specialist</text>
  <text x="290" y="215" font-family="'Virgil', 'Segoe Print', 'Comic Sans MS', cursive" font-size="12" fill="#868e96" text-anchor="middle" dominant-baseline="central">LLM + tools</text>
  <text x="507" y="170" font-family="'Virgil', 'Segoe Print', 'Comic Sans MS', cursive" font-size="16" fill="#1e1e1e" text-anchor="middle" dominant-baseline="central">3. policy-reviewer</text>
  <text x="507" y="215" font-family="'Virgil', 'Segoe Print', 'Comic Sans MS', cursive" font-size="12" fill="#868e96" text-anchor="middle" dominant-baseline="central">LLM</text>
  <text x="712.5" y="170" font-family="'Virgil', 'Segoe Print', 'Comic Sans MS', cursive" font-size="16" fill="#1e1e1e" text-anchor="middle" dominant-baseline="central">4. reply-writer</text>
  <text x="712" y="215" font-family="'Virgil', 'Segoe Print', 'Comic Sans MS', cursive" font-size="12" fill="#868e96" text-anchor="middle" dominant-baseline="central">LLM</text>
  <text x="287" y="288" font-family="'Virgil', 'Segoe Print', 'Comic Sans MS', cursive" font-size="16" fill="#1e1e1e" text-anchor="middle" dominant-baseline="central">5. finalize-result</text>
  <text x="287.5" y="330" font-family="'Virgil', 'Segoe Print', 'Comic Sans MS', cursive" font-size="12" fill="#868e96" text-anchor="middle" dominant-baseline="central">deterministic</text>
  <text x="462" y="288" font-family="'Virgil', 'Segoe Print', 'Comic Sans MS', cursive" font-size="14" fill="#1e1e1e" text-anchor="middle" dominant-baseline="central">escalate?</text>
  <text x="530" y="279" font-family="'Virgil', 'Segoe Print', 'Comic Sans MS', cursive" font-size="13" fill="#595959" text-anchor="middle" dominant-baseline="central">no</text>
  <text x="624.5" y="288" font-family="'Virgil', 'Segoe Print', 'Comic Sans MS', cursive" font-size="18" fill="#1e1e1e" text-anchor="middle" dominant-baseline="central">Final Result</text>
  <text x="445" y="351" font-family="'Virgil', 'Segoe Print', 'Comic Sans MS', cursive" font-size="13" fill="#e03131" text-anchor="middle" dominant-baseline="central">yes</text>
  <text x="455" y="415" font-family="'Virgil', 'Segoe Print', 'Comic Sans MS', cursive" font-size="14" fill="#1e1e1e" text-anchor="middle" dominant-baseline="central">create-escalation</text>
  </g>
</svg>